<?xml version="1.0" standalone="no"?>
<!DOCTYPE svg PUBLIC "-//W3C//DTD SVG 20010904//EN"
 "http://www.w3.org/TR/2001/REC-SVG-20010904/DTD/svg10.dtd">
<svg version="1.0" xmlns="http://www.w3.org/2000/svg"
 width="1168.000000pt" height="220.000000pt" viewBox="0 0 1168.000000 220.000000"
 preserveAspectRatio="xMidYMid meet">
<metadata>
Created by potrace 1.16, written by Peter Selinger 2001-2019
</metadata>
<g transform="translate(0.000000,220.000000) scale(0.100000,-0.100000)"
fill="#000000" stroke="none">
<path d="M904 2184 c-333 -56 -640 -284 -792 -589 -79 -159 -112 -305 -112
-495 0 -256 70 -470 220 -668 197 -262 494 -416 827 -429 257 -11 467 48 676
188 87 59 235 210 291 297 114 177 186 406 186 594 l0 38 -244 0 -244 0 -7
-73 c-14 -150 -77 -278 -191 -387 -99 -94 -263 -170 -366 -170 l-28 0 0 855 0
855 -67 -1 c-38 -1 -104 -7 -149 -15z m166 -229 l0 -195 -28 0 c-51 0 -178
-38 -248 -74 -80 -40 -155 -101 -214 -171 -75 -90 -140 -255 -140 -354 l0 -41
-196 0 -197 0 6 83 c11 150 83 348 177 487 123 182 326 336 532 404 82 28 210
54 271 55 l37 1 0 -195z m0 -1075 l0 -830 -34 0 c-102 0 -287 50 -406 110
-152 76 -315 219 -403 353 -94 142 -163 333 -174 485 l-6 72 367 0 366 0 0 25
0 25 -145 0 -145 0 0 33 c0 93 69 257 146 344 100 116 279 208 412 212 l22 1
0 -830z m1074 123 c-32 -330 -231 -641 -517 -809 -132 -77 -348 -144 -466
-144 l-41 0 0 195 0 195 33 0 c57 0 184 38 257 76 184 96 317 292 345 507 l6
47 195 0 195 0 -7 -67z"/>
<path d="M6285 1779 c-38 -5 -89 -11 -112 -14 l-43 -6 0 -497 c0 -542 4 -587
57 -683 32 -61 69 -93 143 -128 50 -24 66 -26 180 -26 141 1 251 24 249 54 0
9 -15 68 -33 131 -35 129 -21 118 -133 104 -65 -8 -108 8 -131 50 -14 26 -17
67 -20 249 l-4 217 136 0 136 0 0 135 0 135 -130 0 -130 0 0 145 0 145 -47 -1
c-27 -1 -79 -5 -118 -10z"/>
<path d="M8380 1530 c-233 -38 -364 -177 -347 -366 18 -187 159 -287 445 -314
111 -10 159 -29 168 -67 10 -39 -6 -64 -54 -85 -95 -42 -279 -7 -405 76 -32
21 -59 37 -61 35 -19 -24 -126 -213 -126 -222 0 -16 109 -89 180 -121 95 -43
175 -59 305 -59 228 -1 368 64 443 206 24 46 27 63 27 147 0 114 -14 158 -68
218 -74 79 -151 107 -351 127 -161 16 -200 39 -182 108 18 72 201 81 330 17
32 -17 60 -30 62 -30 2 0 37 44 79 98 l77 97 -34 28 c-43 36 -121 74 -189 93
-69 18 -228 26 -299 14z"/>
<path d="M9420 1530 c-233 -38 -364 -177 -347 -366 18 -187 159 -287 445 -314
111 -10 159 -29 168 -67 10 -39 -6 -64 -54 -85 -95 -42 -279 -7 -405 76 -32
21 -59 37 -61 35 -19 -24 -126 -213 -126 -222 0 -13 101 -83 167 -116 87 -43
191 -64 318 -64 228 -1 368 64 443 206 24 46 27 63 27 147 0 114 -14 158 -68
218 -74 79 -151 107 -351 127 -161 16 -200 39 -182 108 18 72 201 81 330 17
32 -17 60 -30 62 -30 2 0 37 44 79 98 l77 97 -34 28 c-43 36 -121 74 -189 93
-69 18 -228 26 -299 14z"/>
<path d="M3305 1514 c-157 -34 -301 -136 -368 -261 -116 -218 -75 -532 89
-683 66 -59 143 -101 235 -126 89 -25 282 -25 364 0 92 27 235 113 235 141 0
16 -180 205 -195 205 -7 0 -18 -7 -25 -15 -6 -8 -37 -24 -68 -36 -143 -53
-290 -5 -355 116 -17 31 -22 58 -22 120 0 70 4 87 30 134 33 60 90 104 160
122 63 17 162 6 223 -25 30 -15 55 -26 56 -24 2 2 39 44 84 95 45 50 82 96 82
101 0 18 -74 75 -135 103 -105 49 -254 61 -390 33z"/>
<path d="M5777 1519 c-52 -12 -91 -34 -137 -75 -41 -38 -39 -39 -54 29 l-6 27
-150 0 -150 0 0 -530 0 -530 160 0 160 0 0 291 c0 178 4 307 11 334 14 55 70
122 123 146 31 14 66 19 144 19 l102 0 0 150 0 150 -82 -1 c-46 -1 -100 -5
-121 -10z"/>
<path d="M7198 1514 c-183 -44 -325 -185 -373 -371 -19 -74 -19 -239 0 -322
45 -188 178 -323 376 -377 89 -25 308 -25 399 -1 77 21 193 75 235 110 l29 25
-46 53 c-26 30 -67 76 -91 103 l-44 50 -32 -23 c-112 -80 -346 -82 -449 -4
-27 20 -72 88 -72 108 0 3 173 5 384 5 341 0 385 2 390 16 12 32 6 230 -9 289
-46 175 -166 292 -350 340 -74 19 -267 19 -347 -1z m295 -274 c61 -23 103 -62
116 -108 l10 -32 -245 0 c-142 0 -244 4 -244 9 0 5 15 29 33 53 69 92 206 124
330 78z"/>
<path d="M4150 983 c-127 -285 -234 -524 -237 -530 -4 -10 32 -13 159 -13
l165 0 33 85 33 85 232 0 232 0 33 -85 33 -85 163 0 c90 0 164 3 164 8 0 4
-105 241 -233 527 l-232 520 -156 3 -156 2 -233 -517z m450 42 c33 -82 58
-150 56 -152 -2 -2 -57 -2 -124 -1 l-120 3 61 152 c33 84 62 151 64 149 2 -1
30 -70 63 -151z"/>
<path d="M10466 1468 c-7 -18 -113 -255 -235 -526 -121 -271 -221 -494 -221
-497 0 -3 73 -5 163 -5 l164 0 34 87 35 88 229 0 229 0 35 -87 34 -88 164 0
c134 0 164 3 161 14 -2 7 -106 246 -233 529 l-230 516 -157 1 -158 0 -14 -32z
m234 -443 c33 -82 60 -150 60 -152 0 -2 -57 -3 -126 -3 -97 0 -125 3 -121 13
71 180 120 297 123 294 3 -2 31 -71 64 -152z"/>
<path d="M11340 605 c0 -9 9 -15 25 -15 24 0 25 -2 25 -75 0 -68 2 -75 20 -75
18 0 20 7 20 75 l0 75 30 0 c20 0 30 5 30 15 0 12 -15 15 -75 15 -60 0 -75 -3
-75 -15z"/>
<path d="M11500 530 c0 -83 1 -90 20 -90 18 0 20 7 20 57 l0 58 23 -32 c12
-18 25 -33 29 -33 4 0 19 17 33 37 l25 38 0 -63 c0 -48 3 -62 15 -62 12 0 15
17 15 90 0 83 -2 90 -20 90 -11 0 -29 -15 -43 -35 l-24 -35 -24 35 c-15 22
-32 35 -46 35 -22 0 -23 -3 -23 -90z"/>
</g>
</svg>
